<svg width="54" height="55" viewBox="0 0 54 55" fill="none" xmlns="http://www.w3.org/2000/svg">
<path d="M35.3281 32.6709C35.3281 32.8167 35.319 32.9626 35.3008 33.1084C35.2826 33.2542 35.2734 33.3818 35.2734 33.4912L44.0234 43.7178C45.0443 42.6605 45.9375 41.5303 46.7031 40.3271C47.5052 39.0876 48.1797 37.7933 48.7266 36.4443C49.2734 35.0954 49.6927 33.6735 49.9844 32.1787C50.276 30.7204 50.4219 29.2074 50.4219 27.6396C50.4219 24.3949 49.8021 21.3506 48.5625 18.5068C47.3229 15.6266 45.6458 13.1292 43.5312 11.0146C41.4167 8.90007 38.9193 7.22298 36.0391 5.9834C33.1953 4.74382 30.151 4.12402 26.9062 4.12402C24.4271 4.12402 22.0573 4.48861 19.7969 5.21777C17.5365 5.94694 15.4583 6.96777 13.5625 8.28027L21.2188 17.1943C21.7656 16.7933 22.3854 16.4743 23.0781 16.2373C23.7708 16.0003 24.4818 15.8818 25.2109 15.8818V12.5459C25.2109 12.0719 25.375 11.6709 25.7031 11.3428C26.0312 11.0146 26.4323 10.8506 26.9062 10.8506C27.3802 10.8506 27.7812 11.0146 28.1094 11.3428C28.4375 11.6709 28.6016 12.0719 28.6016 12.5459V15.8818C30.4609 15.8818 32.0469 16.5381 33.3594 17.8506C34.6719 19.1631 35.3281 20.749 35.3281 22.6084C35.3281 23.0824 35.1641 23.4834 34.8359 23.8115C34.5078 24.1396 34.1068 24.3037 33.6328 24.3037C33.1589 24.3037 32.7578 24.1396 32.4297 23.8115C32.1016 23.4834 31.9375 23.0824 31.9375 22.6084C31.9375 21.6605 31.6094 20.8584 30.9531 20.2021C30.2969 19.5459 29.513 19.2178 28.6016 19.2178H25.2109C24.8828 19.2178 24.5638 19.2633 24.2539 19.3545C23.944 19.4456 23.6615 19.5824 23.4062 19.7646L29.2031 26.4912L31.5 27.0381C32.6302 27.3298 33.5508 27.9313 34.2617 28.8428C34.9727 29.7542 35.3281 30.7933 35.3281 31.96V32.6709ZM33.9062 36.7725C33.3229 37.5745 32.5664 38.2126 31.6367 38.6865C30.707 39.1605 29.6953 39.3975 28.6016 39.3975V42.7334C28.6016 43.2074 28.4375 43.6084 28.1094 43.9365C27.7812 44.2646 27.3802 44.4287 26.9062 44.4287C26.4323 44.4287 26.0312 44.2646 25.7031 43.9365C25.375 43.6084 25.2109 43.2074 25.2109 42.7334V39.3975C23.3516 39.3975 21.7656 38.7412 20.4531 37.4287C19.1406 36.1162 18.4844 34.5303 18.4844 32.6709C18.4844 32.1969 18.6484 31.7959 18.9766 31.4678C19.3047 31.1396 19.7057 30.9756 20.1797 30.9756C20.6536 30.9756 21.0547 31.1396 21.3828 31.4678C21.7109 31.7959 21.875 32.1969 21.875 32.6709C21.875 33.6188 22.2031 34.4209 22.8594 35.0771C23.5156 35.7334 24.2995 36.0615 25.2109 36.0615H28.6016C29.2578 36.0615 29.8503 35.8883 30.3789 35.542C30.9076 35.1956 31.3177 34.7308 31.6094 34.1475L27.3984 29.499L22.3125 28.2412C21.1823 27.9495 20.2617 27.348 19.5508 26.4365C18.8398 25.5251 18.4844 24.486 18.4844 23.3193V22.6084C18.4844 22.1709 18.5299 21.7516 18.6211 21.3506C18.7122 20.9495 18.8307 20.5485 18.9766 20.1475L10.5 10.7959C9.40625 11.8532 8.42188 13.0199 7.54688 14.2959C6.67188 15.5719 5.92448 16.9209 5.30469 18.3428C4.6849 19.7646 4.21094 21.2594 3.88281 22.8271C3.55469 24.3949 3.39062 25.999 3.39062 27.6396C3.39062 30.8844 4.01042 33.9287 5.25 36.7725C6.48958 39.6527 8.16667 42.1501 10.2812 44.2646C12.3958 46.3792 14.8932 48.0563 17.7734 49.2959C20.6172 50.5355 23.6615 51.1553 26.9062 51.1553C29.7865 51.1553 32.5117 50.6722 35.082 49.7061C37.6523 48.7399 39.9583 47.4001 42 45.6865L33.9062 36.7725ZM21.875 23.374L23.3516 25.0146L23.1328 24.96C22.7682 24.887 22.4674 24.7048 22.2305 24.4131C21.9935 24.1214 21.875 23.7751 21.875 23.374ZM26.9062 0.733398C30.625 0.733398 34.1068 1.44434 37.3516 2.86621C40.6328 4.28809 43.4857 6.21126 45.9102 8.63574C48.3346 11.0602 50.2578 13.9131 51.6797 17.1943C53.1016 20.4391 53.8125 23.9209 53.8125 27.6396C53.8125 31.3584 53.1016 34.8402 51.6797 38.085C50.2578 41.3662 48.3346 44.2191 45.9102 46.6436C43.4857 49.068 40.6328 50.9912 37.3516 52.4131C34.1068 53.835 30.625 54.5459 26.9062 54.5459C23.1875 54.5459 19.7057 53.835 16.4609 52.4131C13.1797 50.9912 10.3268 49.068 7.90234 46.6436C5.47786 44.2191 3.55469 41.3662 2.13281 38.085C0.710938 34.8402 0 31.3584 0 27.6396C0 23.9209 0.710938 20.4391 2.13281 17.1943C3.55469 13.9131 5.47786 11.0602 7.90234 8.63574C10.3268 6.21126 13.1797 4.28809 16.4609 2.86621C19.7057 1.44434 23.1875 0.733398 26.9062 0.733398ZM35.3281 32.6709C35.3281 32.8167 35.319 32.9626 35.3008 33.1084C35.2826 33.2542 35.2734 33.3818 35.2734 33.4912L44.0234 43.7178C45.0443 42.6605 45.9375 41.5303 46.7031 40.3271C47.5052 39.0876 48.1797 37.7933 48.7266 36.4443C49.2734 35.0954 49.6927 33.6735 49.9844 32.1787C50.276 30.7204 50.4219 29.2074 50.4219 27.6396C50.4219 24.3949 49.8021 21.3506 48.5625 18.5068C47.3229 15.6266 45.6458 13.1292 43.5312 11.0146C41.4167 8.90007 38.9193 7.22298 36.0391 5.9834C33.1953 4.74382 30.151 4.12402 26.9062 4.12402C24.4271 4.12402 22.0573 4.48861 19.7969 5.21777C17.5365 5.94694 15.4583 6.96777 13.5625 8.28027L21.2188 17.1943C21.7656 16.7933 22.3854 16.4743 23.0781 16.2373C23.7708 16.0003 24.4818 15.8818 25.2109 15.8818V12.5459C25.2109 12.0719 25.375 11.6709 25.7031 11.3428C26.0312 11.0146 26.4323 10.8506 26.9062 10.8506C27.3802 10.8506 27.7812 11.0146 28.1094 11.3428C28.4375 11.6709 28.6016 12.0719 28.6016 12.5459V15.8818C30.4609 15.8818 32.0469 16.5381 33.3594 17.8506C34.6719 19.1631 35.3281 20.749 35.3281 22.6084C35.3281 23.0824 35.1641 23.4834 34.8359 23.8115C34.5078 24.1396 34.1068 24.3037 33.6328 24.3037C33.1589 24.3037 32.7578 24.1396 32.4297 23.8115C32.1016 23.4834 31.9375 23.0824 31.9375 22.6084C31.9375 21.6605 31.6094 20.8584 30.9531 20.2021C30.2969 19.5459 29.513 19.2178 28.6016 19.2178H25.2109C24.8828 19.2178 24.5638 19.2633 24.2539 19.3545C23.944 19.4456 23.6615 19.5824 23.4062 19.7646L29.2031 26.4912L31.5 27.0381C32.6302 27.3298 33.5508 27.9313 34.2617 28.8428C34.9727 29.7542 35.3281 30.7933 35.3281 31.96V32.6709ZM33.9062 36.7725C33.3229 37.5745 32.5664 38.2126 31.6367 38.6865C30.707 39.1605 29.6953 39.3975 28.6016 39.3975V42.7334C28.6016 43.2074 28.4375 43.6084 28.1094 43.9365C27.7812 44.2646 27.3802 44.4287 26.9062 44.4287C26.4323 44.4287 26.0312 44.2646 25.7031 43.9365C25.375 43.6084 25.2109 43.2074 25.2109 42.7334V39.3975C23.3516 39.3975 21.7656 38.7412 20.4531 37.4287C19.1406 36.1162 18.4844 34.5303 18.4844 32.6709C18.4844 32.1969 18.6484 31.7959 18.9766 31.4678C19.3047 31.1396 19.7057 30.9756 20.1797 30.9756C20.6536 30.9756 21.0547 31.1396 21.3828 31.4678C21.7109 31.7959 21.875 32.1969 21.875 32.6709C21.875 33.6188 22.2031 34.4209 22.8594 35.0771C23.5156 35.7334 24.2995 36.0615 25.2109 36.0615H28.6016C29.2578 36.0615 29.8503 35.8883 30.3789 35.542C30.9076 35.1956 31.3177 34.7308 31.6094 34.1475L27.3984 29.499L22.3125 28.2412C21.1823 27.9495 20.2617 27.348 19.5508 26.4365C18.8398 25.5251 18.4844 24.486 18.4844 23.3193V22.6084C18.4844 22.1709 18.5299 21.7516 18.6211 21.3506C18.7122 20.9495 18.8307 20.5485 18.9766 20.1475L10.5 10.7959C9.40625 11.8532 8.42188 13.0199 7.54688 14.2959C6.67188 15.5719 5.92448 16.9209 5.30469 18.3428C4.6849 19.7646 4.21094 21.2594 3.88281 22.8271C3.55469 24.3949 3.39062 25.999 3.39062 27.6396C3.39062 30.8844 4.01042 33.9287 5.25 36.7725C6.48958 39.6527 8.16667 42.1501 10.2812 44.2646C12.3958 46.3792 14.8932 48.0563 17.7734 49.2959C20.6172 50.5355 23.6615 51.1553 26.9062 51.1553C29.7865 51.1553 32.5117 50.6722 35.082 49.7061C37.6523 48.7399 39.9583 47.4001 42 45.6865L33.9062 36.7725ZM21.875 23.374L23.3516 25.0146L23.1328 24.96C22.7682 24.887 22.4674 24.7048 22.2305 24.4131C21.9935 24.1214 21.875 23.7751 21.875 23.374ZM26.9062 0.733398C30.625 0.733398 34.1068 1.44434 37.3516 2.86621C40.6328 4.28809 43.4857 6.21126 45.9102 8.63574C48.3346 11.0602 50.2578 13.9131 51.6797 17.1943C53.1016 20.4391 53.8125 23.9209 53.8125 27.6396C53.8125 31.3584 53.1016 34.8402 51.6797 38.085C50.2578 41.3662 48.3346 44.2191 45.9102 46.6436C43.4857 49.068 40.6328 50.9912 37.3516 52.4131C34.1068 53.835 30.625 54.5459 26.9062 54.5459C23.1875 54.5459 19.7057 53.835 16.4609 52.4131C13.1797 50.9912 10.3268 49.068 7.90234 46.6436C5.47786 44.2191 3.55469 41.3662 2.13281 38.085C0.710938 34.8402 0 31.3584 0 27.6396C0 23.9209 0.710938 20.4391 2.13281 17.1943C3.55469 13.9131 5.47786 11.0602 7.90234 8.63574C10.3268 6.21126 13.1797 4.28809 16.4609 2.86621C19.7057 1.44434 23.1875 0.733398 26.9062 0.733398Z" fill="#2EBB77"/>
</svg>
