<svg width="46" height="47" viewBox="0 0 46 47" fill="none" xmlns="http://www.w3.org/2000/svg">
<path d="M43.75 6.13965H22.4766C22.112 4.64486 21.3099 3.39616 20.0703 2.39355C18.8307 1.39095 17.3906 0.889648 15.75 0.889648C14.1094 0.889648 12.6693 1.39095 11.4297 2.39355C10.1901 3.39616 9.38802 4.64486 9.02344 6.13965H1.75C1.27604 6.13965 0.865885 6.31282 0.519531 6.65918C0.173177 7.00554 0 7.41569 0 7.88965C0 8.36361 0.173177 8.77376 0.519531 9.12012C0.865885 9.46647 1.27604 9.63965 1.75 9.63965H9.02344C9.38802 11.1344 10.1901 12.3831 11.4297 13.3857C12.6693 14.3883 14.1094 14.8896 15.75 14.8896C17.3906 14.8896 18.8307 14.3883 20.0703 13.3857C21.3099 12.3831 22.112 11.1344 22.4766 9.63965H43.75C44.224 9.63965 44.6341 9.46647 44.9805 9.12012C45.3268 8.77376 45.5 8.36361 45.5 7.88965C45.5 7.41569 45.3268 7.00554 44.9805 6.65918C44.6341 6.31282 44.224 6.13965 43.75 6.13965ZM15.75 11.3896C14.8021 11.3896 13.9818 11.0433 13.2891 10.3506C12.5964 9.65788 12.25 8.83757 12.25 7.88965C12.25 6.94173 12.5964 6.12142 13.2891 5.42871C13.9818 4.736 14.8021 4.38965 15.75 4.38965C16.6979 4.38965 17.5182 4.736 18.2109 5.42871C18.9036 6.12142 19.25 6.94173 19.25 7.88965C19.25 8.83757 18.9036 9.65788 18.2109 10.3506C17.5182 11.0433 16.6979 11.3896 15.75 11.3896ZM43.75 21.8896H36.4766C36.112 20.3949 35.3099 19.1462 34.0703 18.1436C32.8307 17.141 31.3906 16.6396 29.75 16.6396C28.1094 16.6396 26.6693 17.141 25.4297 18.1436C24.1901 19.1462 23.388 20.3949 23.0234 21.8896H1.75C1.27604 21.8896 0.865885 22.0628 0.519531 22.4092C0.173177 22.7555 0 23.1657 0 23.6396C0 24.1136 0.173177 24.5238 0.519531 24.8701C0.865885 25.2165 1.27604 25.3896 1.75 25.3896H23.0234C23.388 26.8844 24.1901 28.1331 25.4297 29.1357C26.6693 30.1383 28.1094 30.6396 29.75 30.6396C31.3906 30.6396 32.8307 30.1383 34.0703 29.1357C35.3099 28.1331 36.112 26.8844 36.4766 25.3896H43.75C44.224 25.3896 44.6341 25.2165 44.9805 24.8701C45.3268 24.5238 45.5 24.1136 45.5 23.6396C45.5 23.1657 45.3268 22.7555 44.9805 22.4092C44.6341 22.0628 44.224 21.8896 43.75 21.8896ZM29.75 27.1396C28.8021 27.1396 27.9818 26.7933 27.2891 26.1006C26.5964 25.4079 26.25 24.5876 26.25 23.6396C26.25 22.6917 26.5964 21.8714 27.2891 21.1787C27.9818 20.486 28.8021 20.1396 29.75 20.1396C30.6979 20.1396 31.5182 20.486 32.2109 21.1787C32.9036 21.8714 33.25 22.6917 33.25 23.6396C33.25 24.5876 32.9036 25.4079 32.2109 26.1006C31.5182 26.7933 30.6979 27.1396 29.75 27.1396ZM43.75 37.6396H22.4766C22.112 36.1449 21.3099 34.8962 20.0703 33.8936C18.8307 32.891 17.3906 32.3896 15.75 32.3896C14.1094 32.3896 12.6693 32.891 11.4297 33.8936C10.1901 34.8962 9.38802 36.1449 9.02344 37.6396H1.75C1.27604 37.6396 0.865885 37.8128 0.519531 38.1592C0.173177 38.5055 0 38.9157 0 39.3896C0 39.8636 0.173177 40.2738 0.519531 40.6201C0.865885 40.9665 1.27604 41.1396 1.75 41.1396H9.02344C9.38802 42.6344 10.1901 43.8831 11.4297 44.8857C12.6693 45.8883 14.1094 46.3896 15.75 46.3896C17.3906 46.3896 18.8307 45.8883 20.0703 44.8857C21.3099 43.8831 22.112 42.6344 22.4766 41.1396H43.75C44.224 41.1396 44.6341 40.9665 44.9805 40.6201C45.3268 40.2738 45.5 39.8636 45.5 39.3896C45.5 38.9157 45.3268 38.5055 44.9805 38.1592C44.6341 37.8128 44.224 37.6396 43.75 37.6396ZM15.75 42.8896C14.8021 42.8896 13.9818 42.5433 13.2891 41.8506C12.5964 41.1579 12.25 40.3376 12.25 39.3896C12.25 38.4417 12.5964 37.6214 13.2891 36.9287C13.9818 36.236 14.8021 35.8896 15.75 35.8896C16.6979 35.8896 17.5182 36.236 18.2109 36.9287C18.9036 37.6214 19.25 38.4417 19.25 39.3896C19.25 40.3376 18.9036 41.1579 18.2109 41.8506C17.5182 42.5433 16.6979 42.8896 15.75 42.8896ZM43.75 6.13965H22.4766C22.112 4.64486 21.3099 3.39616 20.0703 2.39355C18.8307 1.39095 17.3906 0.889648 15.75 0.889648C14.1094 0.889648 12.6693 1.39095 11.4297 2.39355C10.1901 3.39616 9.38802 4.64486 9.02344 6.13965H1.75C1.27604 6.13965 0.865885 6.31282 0.519531 6.65918C0.173177 7.00554 0 7.41569 0 7.88965C0 8.36361 0.173177 8.77376 0.519531 9.12012C0.865885 9.46647 1.27604 9.63965 1.75 9.63965H9.02344C9.38802 11.1344 10.1901 12.3831 11.4297 13.3857C12.6693 14.3883 14.1094 14.8896 15.75 14.8896C17.3906 14.8896 18.8307 14.3883 20.0703 13.3857C21.3099 12.3831 22.112 11.1344 22.4766 9.63965H43.75C44.224 9.63965 44.6341 9.46647 44.9805 9.12012C45.3268 8.77376 45.5 8.36361 45.5 7.88965C45.5 7.41569 45.3268 7.00554 44.9805 6.65918C44.6341 6.31282 44.224 6.13965 43.75 6.13965ZM15.75 11.3896C14.8021 11.3896 13.9818 11.0433 13.2891 10.3506C12.5964 9.65788 12.25 8.83757 12.25 7.88965C12.25 6.94173 12.5964 6.12142 13.2891 5.42871C13.9818 4.736 14.8021 4.38965 15.75 4.38965C16.6979 4.38965 17.5182 4.736 18.2109 5.42871C18.9036 6.12142 19.25 6.94173 19.25 7.88965C19.25 8.83757 18.9036 9.65788 18.2109 10.3506C17.5182 11.0433 16.6979 11.3896 15.75 11.3896ZM43.75 21.8896H36.4766C36.112 20.3949 35.3099 19.1462 34.0703 18.1436C32.8307 17.141 31.3906 16.6396 29.75 16.6396C28.1094 16.6396 26.6693 17.141 25.4297 18.1436C24.1901 19.1462 23.388 20.3949 23.0234 21.8896H1.75C1.27604 21.8896 0.865885 22.0628 0.519531 22.4092C0.173177 22.7555 0 23.1657 0 23.6396C0 24.1136 0.173177 24.5238 0.519531 24.8701C0.865885 25.2165 1.27604 25.3896 1.75 25.3896H23.0234C23.388 26.8844 24.1901 28.1331 25.4297 29.1357C26.6693 30.1383 28.1094 30.6396 29.75 30.6396C31.3906 30.6396 32.8307 30.1383 34.0703 29.1357C35.3099 28.1331 36.112 26.8844 36.4766 25.3896H43.75C44.224 25.3896 44.6341 25.2165 44.9805 24.8701C45.3268 24.5238 45.5 24.1136 45.5 23.6396C45.5 23.1657 45.3268 22.7555 44.9805 22.4092C44.6341 22.0628 44.224 21.8896 43.75 21.8896ZM29.75 27.1396C28.8021 27.1396 27.9818 26.7933 27.2891 26.1006C26.5964 25.4079 26.25 24.5876 26.25 23.6396C26.25 22.6917 26.5964 21.8714 27.2891 21.1787C27.9818 20.486 28.8021 20.1396 29.75 20.1396C30.6979 20.1396 31.5182 20.486 32.2109 21.1787C32.9036 21.8714 33.25 22.6917 33.25 23.6396C33.25 24.5876 32.9036 25.4079 32.2109 26.1006C31.5182 26.7933 30.6979 27.1396 29.75 27.1396ZM43.75 37.6396H22.4766C22.112 36.1449 21.3099 34.8962 20.0703 33.8936C18.8307 32.891 17.3906 32.3896 15.75 32.3896C14.1094 32.3896 12.6693 32.891 11.4297 33.8936C10.1901 34.8962 9.38802 36.1449 9.02344 37.6396H1.75C1.27604 37.6396 0.865885 37.8128 0.519531 38.1592C0.173177 38.5055 0 38.9157 0 39.3896C0 39.8636 0.173177 40.2738 0.519531 40.6201C0.865885 40.9665 1.27604 41.1396 1.75 41.1396H9.02344C9.38802 42.6344 10.1901 43.8831 11.4297 44.8857C12.6693 45.8883 14.1094 46.3896 15.75 46.3896C17.3906 46.3896 18.8307 45.8883 20.0703 44.8857C21.3099 43.8831 22.112 42.6344 22.4766 41.1396H43.75C44.224 41.1396 44.6341 40.9665 44.9805 40.6201C45.3268 40.2738 45.5 39.8636 45.5 39.3896C45.5 38.9157 45.3268 38.5055 44.9805 38.1592C44.6341 37.8128 44.224 37.6396 43.75 37.6396ZM15.75 42.8896C14.8021 42.8896 13.9818 42.5433 13.2891 41.8506C12.5964 41.1579 12.25 40.3376 12.25 39.3896C12.25 38.4417 12.5964 37.6214 13.2891 36.9287C13.9818 36.236 14.8021 35.8896 15.75 35.8896C16.6979 35.8896 17.5182 36.236 18.2109 36.9287C18.9036 37.6214 19.25 38.4417 19.25 39.3896C19.25 40.3376 18.9036 41.1579 18.2109 41.8506C17.5182 42.5433 16.6979 42.8896 15.75 42.8896Z" fill="#2EBB77"/>
</svg>
