<svg width="56" height="40" viewBox="0 0 56 40" fill="none" xmlns="http://www.w3.org/2000/svg">
<path d="M55.6172 19.4756L52.3359 15.2646L47.0312 4.70996C46.8854 4.41829 46.6758 4.19043 46.4023 4.02637C46.1289 3.8623 45.8099 3.78027 45.4453 3.78027H37.9531V1.97559C37.9531 1.50163 37.7799 1.09147 37.4336 0.745117C37.0872 0.398762 36.6771 0.225586 36.2031 0.225586H6.78125C6.27083 0.225586 5.84245 0.398762 5.49609 0.745117C5.14974 1.09147 4.97656 1.50163 4.97656 1.97559C4.97656 2.486 5.14974 2.91439 5.49609 3.26074C5.84245 3.6071 6.27083 3.78027 6.78125 3.78027H34.3984V16.085C34.3984 16.5954 34.5716 17.0238 34.918 17.3701C35.2643 17.7165 35.6927 17.8896 36.2031 17.8896H49.875L52.4453 21.1709V30.3037H49.1641C48.763 28.7725 47.9336 27.4964 46.6758 26.4756C45.418 25.4548 43.9505 24.9443 42.2734 24.9443C40.6328 24.9443 39.1836 25.4548 37.9258 26.4756C36.668 27.4964 35.8385 28.7725 35.4375 30.3037H25.0469C24.6458 28.7725 23.8164 27.4964 22.5586 26.4756C21.3008 25.4548 19.8333 24.9443 18.1562 24.9443C16.5156 24.9443 15.0664 25.4548 13.8086 26.4756C12.5508 27.4964 11.7214 28.7725 11.3203 30.3037H6.78125C6.27083 30.3037 5.84245 30.4769 5.49609 30.8232C5.14974 31.1696 4.97656 31.5798 4.97656 32.0537C4.97656 32.5277 5.14974 32.9378 5.49609 33.2842C5.84245 33.6305 6.27083 33.8037 6.78125 33.8037H11.375C11.776 35.335 12.6055 36.5928 13.8633 37.5771C15.1211 38.5615 16.5521 39.0537 18.1562 39.0537C19.7969 39.0537 21.2461 38.5615 22.5039 37.5771C23.7617 36.5928 24.5911 35.335 24.9922 33.8037H35.4922C35.8932 35.335 36.7227 36.5928 37.9805 37.5771C39.2383 38.5615 40.6693 39.0537 42.2734 39.0537C43.9141 39.0537 45.3633 38.5615 46.6211 37.5771C47.8789 36.5928 48.7083 35.335 49.1094 33.8037H54.25C54.724 33.8037 55.1341 33.6305 55.4805 33.2842C55.8268 32.9378 56 32.5277 56 32.0537V20.5693C56 20.387 55.9727 20.2048 55.918 20.0225C55.8633 19.8402 55.763 19.6579 55.6172 19.4756ZM44.4062 7.28027L47.9062 14.335H37.9531V7.28027H44.4062ZM18.1562 35.499C17.2083 35.499 16.388 35.1618 15.6953 34.4873C15.0026 33.8128 14.6562 32.9834 14.6562 31.999C14.6562 31.0146 15.0026 30.1761 15.6953 29.4834C16.388 28.7907 17.2083 28.4443 18.1562 28.4443C19.1406 28.4443 19.9792 28.7907 20.6719 29.4834C21.3646 30.1761 21.7109 31.0146 21.7109 31.999C21.7109 32.9834 21.3646 33.8128 20.6719 34.4873C19.9792 35.1618 19.1406 35.499 18.1562 35.499ZM42.2734 35.499C41.3255 35.499 40.5052 35.1618 39.8125 34.4873C39.1198 33.8128 38.7734 32.9834 38.7734 31.999C38.7734 31.0146 39.1198 30.1761 39.8125 29.4834C40.5052 28.7907 41.3255 28.4443 42.2734 28.4443C43.2578 28.4443 44.0964 28.7907 44.7891 29.4834C45.4818 30.1761 45.8281 31.0146 45.8281 31.999C45.8281 32.9834 45.4818 33.8128 44.7891 34.4873C44.0964 35.1618 43.2578 35.499 42.2734 35.499ZM4.64844 21.335C4.17448 21.335 3.76432 21.5081 3.41797 21.8545C3.07161 22.2008 2.89844 22.611 2.89844 23.085C2.89844 23.5954 3.07161 24.0238 3.41797 24.3701C3.76432 24.7165 4.17448 24.8896 4.64844 24.8896H12.7422C13.2526 24.8896 13.681 24.7165 14.0273 24.3701C14.3737 24.0238 14.5469 23.5954 14.5469 23.085C14.5469 22.611 14.3737 22.2008 14.0273 21.8545C13.681 21.5081 13.2526 21.335 12.7422 21.335H4.64844ZM16.8438 14.3896C17.3177 14.3896 17.7279 14.5628 18.0742 14.9092C18.4206 15.2555 18.5938 15.6839 18.5938 16.1943C18.5938 16.6683 18.4206 17.0785 18.0742 17.4248C17.7279 17.7712 17.3177 17.9443 16.8438 17.9443H1.75C1.27604 17.9443 0.865885 17.7712 0.519531 17.4248C0.173177 17.0785 0 16.6683 0 16.1943C0 15.6839 0.173177 15.2555 0.519531 14.9092C0.865885 14.5628 1.27604 14.3896 1.75 14.3896H16.8438ZM4.64844 7.44434C4.17448 7.44434 3.76432 7.61751 3.41797 7.96387C3.07161 8.31022 2.89844 8.73861 2.89844 9.24902C2.89844 9.72298 3.07161 10.1331 3.41797 10.4795C3.76432 10.8258 4.17448 10.999 4.64844 10.999H19.6875C20.1979 10.999 20.6263 10.8258 20.9727 10.4795C21.319 10.1331 21.4922 9.72298 21.4922 9.24902C21.4922 8.73861 21.319 8.31022 20.9727 7.96387C20.6263 7.61751 20.1979 7.44434 19.6875 7.44434H4.64844ZM55.6172 19.4756L52.3359 15.2646L47.0312 4.70996C46.8854 4.41829 46.6758 4.19043 46.4023 4.02637C46.1289 3.8623 45.8099 3.78027 45.4453 3.78027H37.9531V1.97559C37.9531 1.50163 37.7799 1.09147 37.4336 0.745117C37.0872 0.398762 36.6771 0.225586 36.2031 0.225586H6.78125C6.27083 0.225586 5.84245 0.398762 5.49609 0.745117C5.14974 1.09147 4.97656 1.50163 4.97656 1.97559C4.97656 2.486 5.14974 2.91439 5.49609 3.26074C5.84245 3.6071 6.27083 3.78027 6.78125 3.78027H34.3984V16.085C34.3984 16.5954 34.5716 17.0238 34.918 17.3701C35.2643 17.7165 35.6927 17.8896 36.2031 17.8896H49.875L52.4453 21.1709V30.3037H49.1641C48.763 28.7725 47.9336 27.4964 46.6758 26.4756C45.418 25.4548 43.9505 24.9443 42.2734 24.9443C40.6328 24.9443 39.1836 25.4548 37.9258 26.4756C36.668 27.4964 35.8385 28.7725 35.4375 30.3037H25.0469C24.6458 28.7725 23.8164 27.4964 22.5586 26.4756C21.3008 25.4548 19.8333 24.9443 18.1562 24.9443C16.5156 24.9443 15.0664 25.4548 13.8086 26.4756C12.5508 27.4964 11.7214 28.7725 11.3203 30.3037H6.78125C6.27083 30.3037 5.84245 30.4769 5.49609 30.8232C5.14974 31.1696 4.97656 31.5798 4.97656 32.0537C4.97656 32.5277 5.14974 32.9378 5.49609 33.2842C5.84245 33.6305 6.27083 33.8037 6.78125 33.8037H11.375C11.776 35.335 12.6055 36.5928 13.8633 37.5771C15.1211 38.5615 16.5521 39.0537 18.1562 39.0537C19.7969 39.0537 21.2461 38.5615 22.5039 37.5771C23.7617 36.5928 24.5911 35.335 24.9922 33.8037H35.4922C35.8932 35.335 36.7227 36.5928 37.9805 37.5771C39.2383 38.5615 40.6693 39.0537 42.2734 39.0537C43.9141 39.0537 45.3633 38.5615 46.6211 37.5771C47.8789 36.5928 48.7083 35.335 49.1094 33.8037H54.25C54.724 33.8037 55.1341 33.6305 55.4805 33.2842C55.8268 32.9378 56 32.5277 56 32.0537V20.5693C56 20.387 55.9727 20.2048 55.918 20.0225C55.8633 19.8402 55.763 19.6579 55.6172 19.4756ZM44.4062 7.28027L47.9062 14.335H37.9531V7.28027H44.4062ZM18.1562 35.499C17.2083 35.499 16.388 35.1618 15.6953 34.4873C15.0026 33.8128 14.6562 32.9834 14.6562 31.999C14.6562 31.0146 15.0026 30.1761 15.6953 29.4834C16.388 28.7907 17.2083 28.4443 18.1562 28.4443C19.1406 28.4443 19.9792 28.7907 20.6719 29.4834C21.3646 30.1761 21.7109 31.0146 21.7109 31.999C21.7109 32.9834 21.3646 33.8128 20.6719 34.4873C19.9792 35.1618 19.1406 35.499 18.1562 35.499ZM42.2734 35.499C41.3255 35.499 40.5052 35.1618 39.8125 34.4873C39.1198 33.8128 38.7734 32.9834 38.7734 31.999C38.7734 31.0146 39.1198 30.1761 39.8125 29.4834C40.5052 28.7907 41.3255 28.4443 42.2734 28.4443C43.2578 28.4443 44.0964 28.7907 44.7891 29.4834C45.4818 30.1761 45.8281 31.0146 45.8281 31.999C45.8281 32.9834 45.4818 33.8128 44.7891 34.4873C44.0964 35.1618 43.2578 35.499 42.2734 35.499ZM4.64844 21.335C4.17448 21.335 3.76432 21.5081 3.41797 21.8545C3.07161 22.2008 2.89844 22.611 2.89844 23.085C2.89844 23.5954 3.07161 24.0238 3.41797 24.3701C3.76432 24.7165 4.17448 24.8896 4.64844 24.8896H12.7422C13.2526 24.8896 13.681 24.7165 14.0273 24.3701C14.3737 24.0238 14.5469 23.5954 14.5469 23.085C14.5469 22.611 14.3737 22.2008 14.0273 21.8545C13.681 21.5081 13.2526 21.335 12.7422 21.335H4.64844ZM16.8438 14.3896C17.3177 14.3896 17.7279 14.5628 18.0742 14.9092C18.4206 15.2555 18.5938 15.6839 18.5938 16.1943C18.5938 16.6683 18.4206 17.0785 18.0742 17.4248C17.7279 17.7712 17.3177 17.9443 16.8438 17.9443H1.75C1.27604 17.9443 0.865885 17.7712 0.519531 17.4248C0.173177 17.0785 0 16.6683 0 16.1943C0 15.6839 0.173177 15.2555 0.519531 14.9092C0.865885 14.5628 1.27604 14.3896 1.75 14.3896H16.8438ZM4.64844 7.44434C4.17448 7.44434 3.76432 7.61751 3.41797 7.96387C3.07161 8.31022 2.89844 8.73861 2.89844 9.24902C2.89844 9.72298 3.07161 10.1331 3.41797 10.4795C3.76432 10.8258 4.17448 10.999 4.64844 10.999H19.6875C20.1979 10.999 20.6263 10.8258 20.9727 10.4795C21.319 10.1331 21.4922 9.72298 21.4922 9.24902C21.4922 8.73861 21.319 8.31022 20.9727 7.96387C20.6263 7.61751 20.1979 7.44434 19.6875 7.44434H4.64844Z" fill="#2EBB77"/>
</svg>
