<svg width="19" height="19" viewBox="0 0 19 19" fill="none" xmlns="http://www.w3.org/2000/svg">
<g clip-path="url(#clip0_8360_20972)">
<g clip-path="url(#clip1_8360_20972)">
<g clip-path="url(#clip2_8360_20972)">
<path d="M17.75 10.29C17.75 9.25904 17.5665 8.27054 17.23 7.35604C17 10.0505 15.5635 11.4345 14.0625 10.79C12.6565 10.186 13.604 7.83154 13.674 6.70804C13.792 4.80354 13.668 2.62354 10.2085 0.811035C11.646 3.56104 10.375 5.26954 9.042 5.37354C7.563 5.48904 6.2085 4.10254 6.7085 1.85254C5.0895 3.04554 5.0425 5.05354 5.542 6.35254C6.063 7.70654 5.521 8.83154 4.2505 8.95654C2.8305 9.09654 2.0415 7.43604 2.769 4.79004C1.51 6.27254 0.75 8.19254 0.75 10.29C0.75 14.9845 4.5555 18.79 9.25 18.79C13.9445 18.79 17.75 14.9845 17.75 10.29Z" fill="#F4900C"/>
<path d="M14.447 12.7895C14.521 14.3315 13.1665 14.936 12.4375 14.644C11.3845 14.2225 11.667 13.4985 11.396 11.9985C11.125 10.4985 10.0835 9.45704 8.542 8.99854C9.667 12.165 7.9185 13.332 7.002 13.5405C6.066 13.7535 5.1255 13.54 5.018 11.537C3.926 12.624 3.25 14.128 3.25 15.79C3.25 15.974 3.2615 16.155 3.2775 16.335C4.8125 17.852 6.921 18.79 9.25 18.79C11.579 18.79 13.6875 17.852 15.2225 16.335C15.2385 16.155 15.25 15.974 15.25 15.79C15.25 14.6965 14.958 13.672 14.447 12.7895Z" fill="#FFCC4D"/>
</g>
</g>
</g>
<defs>
<clipPath id="clip0_8360_20972">
<rect width="18" height="18" fill="white" transform="translate(0.25 0.790039)"/>
</clipPath>
<clipPath id="clip1_8360_20972">
<rect width="18" height="18" fill="white" transform="translate(0.25 0.790039)"/>
</clipPath>
<clipPath id="clip2_8360_20972">
<rect width="18" height="18" fill="white" transform="translate(0.25 0.790039)"/>
</clipPath>
</defs>
</svg>
