<svg width="56" height="50" viewBox="0 0 56 50" fill="none" xmlns="http://www.w3.org/2000/svg">
<path d="M54.9609 5.55371L42.7109 0.303711C42.4922 0.194336 42.2552 0.139648 42 0.139648C41.7448 0.139648 41.5078 0.194336 41.2891 0.303711L29.0391 5.55371C28.7474 5.66309 28.5013 5.86361 28.3008 6.15527C28.1003 6.44694 28 6.77507 28 7.13965V14.1396C28 16.5459 28.237 18.7152 28.7109 20.6475C29.1849 22.6162 29.9414 24.4209 30.9805 26.0615C32.0195 27.7021 33.3776 29.2516 35.0547 30.71C36.6953 32.1318 38.7188 33.5355 41.125 34.9209C41.2708 34.9938 41.4167 35.0485 41.5625 35.085C41.7083 35.1214 41.8542 35.1396 42 35.1396C42.1458 35.1396 42.2917 35.1214 42.4375 35.085C42.5833 35.0485 42.7292 34.9938 42.875 34.9209C45.2812 33.5355 47.3047 32.1318 48.9453 30.71C50.6224 29.2881 51.9805 27.7477 53.0195 26.0889C54.0586 24.43 54.8151 22.6344 55.2891 20.7021C55.763 18.7334 56 16.5459 56 14.1396V7.13965C56 6.77507 55.8997 6.44694 55.6992 6.15527C55.4987 5.86361 55.2526 5.66309 54.9609 5.55371ZM52.5 14.1396C52.5 16.1449 52.3177 17.9495 51.9531 19.5537C51.5885 21.1943 50.9961 22.6891 50.1758 24.0381C49.3555 25.387 48.2708 26.6449 46.9219 27.8115C45.6094 29.0146 43.9688 30.1995 42 31.3662C40.0312 30.1995 38.3906 29.0146 37.0781 27.8115C35.7292 26.6449 34.6445 25.3779 33.8242 24.0107C33.0039 22.6436 32.4115 21.1579 32.0469 19.5537C31.6823 17.9495 31.5 16.1449 31.5 14.1396V8.28809L42 3.80371L52.5 8.28809V14.1396ZM52.5 33.3896V45.6396H3.5V24.6396H22.75C23.224 24.6396 23.6341 24.4665 23.9805 24.1201C24.3268 23.7738 24.5 23.3636 24.5 22.8896C24.5 22.4157 24.3268 22.0055 23.9805 21.6592C23.6341 21.3128 23.224 21.1396 22.75 21.1396H3.5V14.1396H22.75C23.224 14.1396 23.6341 13.9665 23.9805 13.6201C24.3268 13.2738 24.5 12.8636 24.5 12.3896C24.5 11.9157 24.3268 11.5055 23.9805 11.1592C23.6341 10.8128 23.224 10.6396 22.75 10.6396H3.5C2.55208 10.6396 1.73177 10.9769 1.03906 11.6514C0.346354 12.3258 0 13.1553 0 14.1396V45.6396C0 46.5876 0.346354 47.4079 1.03906 48.1006C1.73177 48.7933 2.55208 49.1396 3.5 49.1396H52.5C53.4479 49.1396 54.2682 48.7933 54.9609 48.1006C55.6536 47.4079 56 46.5876 56 45.6396V33.3896C56 32.9157 55.8268 32.5055 55.4805 32.1592C55.1341 31.8128 54.724 31.6396 54.25 31.6396C53.776 31.6396 53.3659 31.8128 53.0195 32.1592C52.6732 32.5055 52.5 32.9157 52.5 33.3896ZM8.75 31.6396C8.27604 31.6396 7.86589 31.8128 7.51953 32.1592C7.17318 32.5055 7 32.9157 7 33.3896C7 33.8636 7.17318 34.2738 7.51953 34.6201C7.86589 34.9665 8.27604 35.1396 8.75 35.1396H15.75C16.224 35.1396 16.6341 34.9665 16.9805 34.6201C17.3268 34.2738 17.5 33.8636 17.5 33.3896C17.5 32.9157 17.3268 32.5055 16.9805 32.1592C16.6341 31.8128 16.224 31.6396 15.75 31.6396H8.75ZM45.8828 11.2959L40.3594 18.1865L38.2266 14.9053C37.9349 14.5042 37.5521 14.2581 37.0781 14.167C36.6042 14.0758 36.1667 14.1579 35.7656 14.4131C35.3646 14.7048 35.1185 15.0876 35.0273 15.5615C34.9362 16.0355 35.0182 16.473 35.2734 16.874L38.7734 22.124C38.9557 22.3428 39.1654 22.5251 39.4023 22.6709C39.6393 22.8167 39.9036 22.8896 40.1953 22.8896H40.25C40.5052 22.8896 40.7513 22.835 40.9883 22.7256C41.2253 22.6162 41.4349 22.4521 41.6172 22.2334L48.6172 13.4834C48.9089 13.1188 49.0273 12.6904 48.9727 12.1982C48.918 11.7061 48.7083 11.3141 48.3438 11.0225C47.9792 10.7308 47.5508 10.6123 47.0586 10.667C46.5664 10.7217 46.1745 10.9313 45.8828 11.2959ZM54.9609 5.55371L42.7109 0.303711C42.4922 0.194336 42.2552 0.139648 42 0.139648C41.7448 0.139648 41.5078 0.194336 41.2891 0.303711L29.0391 5.55371C28.7474 5.66309 28.5013 5.86361 28.3008 6.15527C28.1003 6.44694 28 6.77507 28 7.13965V14.1396C28 16.5459 28.237 18.7152 28.7109 20.6475C29.1849 22.6162 29.9414 24.4209 30.9805 26.0615C32.0195 27.7021 33.3776 29.2516 35.0547 30.71C36.6953 32.1318 38.7188 33.5355 41.125 34.9209C41.2708 34.9938 41.4167 35.0485 41.5625 35.085C41.7083 35.1214 41.8542 35.1396 42 35.1396C42.1458 35.1396 42.2917 35.1214 42.4375 35.085C42.5833 35.0485 42.7292 34.9938 42.875 34.9209C45.2812 33.5355 47.3047 32.1318 48.9453 30.71C50.6224 29.2881 51.9805 27.7477 53.0195 26.0889C54.0586 24.43 54.8151 22.6344 55.2891 20.7021C55.763 18.7334 56 16.5459 56 14.1396V7.13965C56 6.77507 55.8997 6.44694 55.6992 6.15527C55.4987 5.86361 55.2526 5.66309 54.9609 5.55371ZM52.5 14.1396C52.5 16.1449 52.3177 17.9495 51.9531 19.5537C51.5885 21.1943 50.9961 22.6891 50.1758 24.0381C49.3555 25.387 48.2708 26.6449 46.9219 27.8115C45.6094 29.0146 43.9688 30.1995 42 31.3662C40.0312 30.1995 38.3906 29.0146 37.0781 27.8115C35.7292 26.6449 34.6445 25.3779 33.8242 24.0107C33.0039 22.6436 32.4115 21.1579 32.0469 19.5537C31.6823 17.9495 31.5 16.1449 31.5 14.1396V8.28809L42 3.80371L52.5 8.28809V14.1396ZM52.5 33.3896V45.6396H3.5V24.6396H22.75C23.224 24.6396 23.6341 24.4665 23.9805 24.1201C24.3268 23.7738 24.5 23.3636 24.5 22.8896C24.5 22.4157 24.3268 22.0055 23.9805 21.6592C23.6341 21.3128 23.224 21.1396 22.75 21.1396H3.5V14.1396H22.75C23.224 14.1396 23.6341 13.9665 23.9805 13.6201C24.3268 13.2738 24.5 12.8636 24.5 12.3896C24.5 11.9157 24.3268 11.5055 23.9805 11.1592C23.6341 10.8128 23.224 10.6396 22.75 10.6396H3.5C2.55208 10.6396 1.73177 10.9769 1.03906 11.6514C0.346354 12.3258 0 13.1553 0 14.1396V45.6396C0 46.5876 0.346354 47.4079 1.03906 48.1006C1.73177 48.7933 2.55208 49.1396 3.5 49.1396H52.5C53.4479 49.1396 54.2682 48.7933 54.9609 48.1006C55.6536 47.4079 56 46.5876 56 45.6396V33.3896C56 32.9157 55.8268 32.5055 55.4805 32.1592C55.1341 31.8128 54.724 31.6396 54.25 31.6396C53.776 31.6396 53.3659 31.8128 53.0195 32.1592C52.6732 32.5055 52.5 32.9157 52.5 33.3896ZM8.75 31.6396C8.27604 31.6396 7.86589 31.8128 7.51953 32.1592C7.17318 32.5055 7 32.9157 7 33.3896C7 33.8636 7.17318 34.2738 7.51953 34.6201C7.86589 34.9665 8.27604 35.1396 8.75 35.1396H15.75C16.224 35.1396 16.6341 34.9665 16.9805 34.6201C17.3268 34.2738 17.5 33.8636 17.5 33.3896C17.5 32.9157 17.3268 32.5055 16.9805 32.1592C16.6341 31.8128 16.224 31.6396 15.75 31.6396H8.75ZM45.8828 11.2959L40.3594 18.1865L38.2266 14.9053C37.9349 14.5042 37.5521 14.2581 37.0781 14.167C36.6042 14.0758 36.1667 14.1579 35.7656 14.4131C35.3646 14.7048 35.1185 15.0876 35.0273 15.5615C34.9362 16.0355 35.0182 16.473 35.2734 16.874L38.7734 22.124C38.9557 22.3428 39.1654 22.5251 39.4023 22.6709C39.6393 22.8167 39.9036 22.8896 40.1953 22.8896H40.25C40.5052 22.8896 40.7513 22.835 40.9883 22.7256C41.2253 22.6162 41.4349 22.4521 41.6172 22.2334L48.6172 13.4834C48.9089 13.1188 49.0273 12.6904 48.9727 12.1982C48.918 11.7061 48.7083 11.3141 48.3438 11.0225C47.9792 10.7308 47.5508 10.6123 47.0586 10.667C46.5664 10.7217 46.1745 10.9313 45.8828 11.2959Z" fill="#2EBB77"/>
</svg>
