<svg width="60" height="60" viewBox="0 0 60 60" fill="none" xmlns="http://www.w3.org/2000/svg">
<mask id="mask0_8360_21540" style="mask-type:luminance" maskUnits="userSpaceOnUse" x="0" y="0" width="60" height="60">
<path d="M60 0H0V60H60V0Z" fill="white"/>
</mask>
<g mask="url(#mask0_8360_21540)">
<path d="M57.6247 13.2389L30.3823 0.0873634C30.1408 -0.0291211 29.8596 -0.0291211 29.6181 0.0873634L2.37567 13.2389C2.07192 13.3855 1.87891 13.6931 1.87891 14.0304V45.9697C1.87891 46.3069 2.07192 46.6146 2.37567 46.7611L29.618 59.9126C29.7387 59.9709 29.8695 60.0001 30.0001 60.0001C30.1309 60.0001 30.2615 59.9709 30.3823 59.9126L57.6247 46.7611C57.9284 46.6146 58.1214 46.3069 58.1214 45.9697V14.0305C58.1214 13.6929 57.9283 13.3855 57.6247 13.2389ZM30.0001 1.8549L55.2209 14.0304L47.9099 17.5598C47.8636 17.5245 47.8147 17.4919 47.7611 17.4661L22.7117 5.37346L30.0001 1.8549ZM20.7268 6.36721L45.9109 18.525L40.7528 21.0151L15.5791 8.86222L20.7268 6.36721ZM46.5001 20.1923V29.3969L41.6821 31.7228V22.5182L46.5001 20.1923ZM56.3636 45.4182L30.8791 57.7207V27.7334L36.9579 24.7988C37.3951 24.5877 37.5783 24.0624 37.3673 23.6251C37.1562 23.1882 36.6308 23.0047 36.1936 23.2159L30.0001 26.2059L27.5631 25.0293C27.1259 24.818 26.6005 25.0015 26.3895 25.4387C26.1784 25.8757 26.3617 26.4013 26.7988 26.6123L29.1212 27.7334V57.7207L3.63673 45.4179V15.4306L23.043 24.7992C23.1661 24.8587 23.2963 24.8869 23.4244 24.8869C23.7511 24.8869 24.0649 24.7038 24.2165 24.3898C24.4275 23.9527 24.2443 23.4272 23.8071 23.2162L4.77942 14.0304L13.5104 9.81537L39.9121 22.561C39.916 22.5664 39.9203 22.5712 39.9243 22.5764V33.1232C39.9243 33.4257 40.0798 33.7069 40.336 33.8677C40.4782 33.957 40.6405 34.0021 40.8033 34.0021C40.9336 34.0021 41.0643 33.9732 41.1853 33.9147L47.7611 30.7402C48.0649 30.5936 48.2579 30.2861 48.2579 29.9487V19.3439L56.3636 15.4307V45.4182Z" fill="#2EBB77"/>
<path d="M10.89 42.0094L6.89212 40.0794C6.45477 39.8681 5.92954 40.0517 5.71848 40.4888C5.50743 40.9259 5.69071 41.4514 6.12782 41.6624L10.1257 43.5923C10.2488 43.6519 10.379 43.68 10.5071 43.68C10.8338 43.68 11.1476 43.4969 11.2992 43.1831C11.5104 42.7458 11.327 42.2206 10.89 42.0094Z" fill="#2EBB77"/>
<path d="M14.5696 39.6145L6.89791 35.9109C6.46068 35.6998 5.93533 35.8831 5.72427 36.3203C5.51333 36.7575 5.69661 37.2829 6.13372 37.4939L13.8054 41.1975C13.9286 41.2569 14.0588 41.2852 14.1868 41.2852C14.5136 41.2852 14.8274 41.1021 14.9789 40.7882C15.1899 40.3509 15.0067 39.8254 14.5696 39.6145Z" fill="#2EBB77"/>
</g>
</svg>
