<svg width="60" height="60" viewBox="0 0 60 60" fill="none" xmlns="http://www.w3.org/2000/svg">
<mask id="mask0_8360_21527" style="mask-type:luminance" maskUnits="userSpaceOnUse" x="0" y="0" width="60" height="60">
<path d="M60 0H0V60H60V0Z" fill="white"/>
</mask>
<g mask="url(#mask0_8360_21527)">
<path d="M30.0001 13.1836C33.9802 13.1836 37.3543 10.2077 37.8489 6.26168C37.8803 6.01149 37.8026 5.75988 37.6358 5.57075C37.4689 5.38172 37.2289 5.27344 36.9768 5.27344H23.0235C22.7714 5.27344 22.5313 5.38172 22.3644 5.57075C22.1976 5.75977 22.12 6.01149 22.1514 6.26168C22.6459 10.2077 26.0201 13.1836 30.0001 13.1836ZM35.8974 7.03125C35.134 9.59512 32.7534 11.4258 30.0001 11.4258C27.2468 11.4258 24.8663 9.59512 24.1029 7.03125H35.8974Z" fill="#2EBB77"/>
<path d="M59.4574 10.3934L39.2554 2.02547C38.8407 1.85344 38.3865 1.75781 37.9101 1.75781H22.0899C21.6135 1.75781 21.1593 1.85344 20.7447 2.02582L0.542578 10.3934C0.214101 10.5294 0 10.8499 0 11.2053V25.3301C0 25.8156 0.393516 26.2089 0.878906 26.2089H11.5431L11.543 57.3633C11.543 57.5964 11.6355 57.8199 11.8005 57.9849C11.9652 58.1496 12.1888 58.2422 12.4219 58.2422H47.5779C48.0633 58.2422 48.4568 57.8488 48.4568 57.3633V47.6953H52.8513C53.3367 47.6953 53.7303 47.3019 53.7303 46.8164L53.7304 30.6035C53.7304 30.3705 53.6379 30.1469 53.473 29.9819L49.7001 26.2089H59.1211C59.6065 26.2089 60 25.8156 60 25.3301V11.2053C60 10.8499 59.7859 10.5294 59.4574 10.3934ZM37.9101 3.51562C38.8794 3.51562 39.668 4.30418 39.668 5.27344C39.668 10.6043 35.331 14.9414 30 14.9414C24.669 14.9414 20.332 10.6043 20.332 5.27344C20.332 4.30418 21.1206 3.51562 22.0899 3.51562H37.9101ZM51.9724 45.9375H43.1834L43.1836 30.9676L47.5781 26.5731L51.9727 30.9676L51.9724 45.9375ZM58.2422 24.4512H48.4569L48.4571 10.321C48.4571 9.83563 48.0636 9.44212 47.5782 9.44212C47.0929 9.44212 46.6994 9.83563 46.6994 10.321L46.6991 24.9661L41.6832 29.9819C41.5184 30.1468 41.4258 30.3703 41.4258 30.6035L41.4255 46.8164C41.4255 47.0495 41.5181 47.273 41.683 47.438C41.8478 47.6027 42.0714 47.6953 42.3045 47.6953H46.6989V56.4843H13.3008L13.3009 10.321C13.3009 9.83554 12.9074 9.44212 12.422 9.44212C11.9366 9.44212 11.5431 9.83554 11.5431 10.321V24.4512H1.75781V11.7926L18.6051 4.81407C18.5854 4.96453 18.5742 5.11758 18.5742 5.27332C18.5742 11.5736 23.6997 16.6991 30 16.6991C36.3003 16.6991 41.4258 11.5736 41.4258 5.27332C41.4258 5.11758 41.4146 4.96453 41.3949 4.81407L58.2422 11.7927V24.4512Z" fill="#2EBB77"/>
</g>
</svg>
