<svg width="60" height="70" viewBox="0 0 60 70" fill="none" xmlns="http://www.w3.org/2000/svg">
<g clip-path="url(#clip0_8360_21509)">
<mask id="mask0_8360_21509" style="mask-type:luminance" maskUnits="userSpaceOnUse" x="0" y="5" width="60" height="60">
<path d="M60 5H0V65H60V5Z" fill="white"/>
</mask>
<g mask="url(#mask0_8360_21509)">
<path d="M55.9073 43.3346C56.1423 42.783 56.0201 42.1526 55.5962 41.7286L49.2837 35.4161C48.9412 35.0737 48.386 35.0737 48.0435 35.4161C47.7011 35.7585 47.7011 36.3138 48.0435 36.6561L53.8425 42.4553L44.6007 42.2704C43.9821 42.2575 43.3795 42.5012 42.9429 42.9376L27.1371 58.7437C27.0231 58.8577 26.8376 58.8576 26.7237 58.7437L14.7231 46.743L15.6789 44.9184C15.7622 44.7596 15.89 44.6317 16.0488 44.5485L24.5854 40.0761C25.1025 39.8052 25.4016 39.2749 25.3658 38.6921C25.33 38.1093 24.9684 37.6195 24.422 37.4139L16.5694 34.458L31.0007 20.0268C31.1146 19.9128 31.3001 19.9129 31.414 20.0268L33.4299 22.0425V27.947C32.0708 28.3304 31.0714 29.5806 31.0714 31.0607C31.0714 32.8448 32.5227 34.2962 34.3068 34.2962C36.0909 34.2962 37.5423 32.8448 37.5423 31.0607C37.5423 29.5806 36.5429 28.3304 35.1837 27.947V23.7962L45.2158 33.8282C45.5583 34.1706 46.1135 34.1706 46.4559 33.8282C46.7983 33.4858 46.7983 32.9306 46.4559 32.5881L35.1838 21.3161V17.1495C35.1838 12.8856 31.715 9.41675 27.4511 9.41675C23.1873 9.41675 19.7184 12.8856 19.7184 17.1495V28.8293L14.7681 33.7796L1.97854 28.9654C1.43468 28.7606 0.841359 28.8888 0.430383 29.2996C0.0194059 29.7106 -0.108797 30.3039 0.0959296 30.8479L2.16523 36.3449C2.33585 36.7982 2.84187 37.0273 3.2948 36.8567C3.74808 36.686 3.97718 36.1804 3.80655 35.7271L1.96461 30.8339L23.1939 38.8253L15.235 42.9949C14.7589 43.2443 14.3753 43.6279 14.1256 44.1044L9.95597 52.0633L5.18738 39.3956C5.01675 38.9423 4.51097 38.7133 4.05781 38.8837C3.60464 39.0544 3.37542 39.56 3.54604 40.0134L8.54433 53.2916C8.74997 53.838 9.23974 54.1996 9.82251 54.2354C10.398 54.2726 10.9371 53.9728 11.2066 53.4548L13.8703 48.3704L25.4835 59.9838C25.8699 60.3702 26.3838 60.583 26.9303 60.583C27.4768 60.583 27.9907 60.3702 28.377 59.9838L44.1831 44.1777C44.2839 44.0771 44.4218 44.0219 44.5657 44.0237L54.5335 44.2231C55.1354 44.2322 55.6722 43.8863 55.9073 43.3346ZM35.7885 31.0607C35.7885 31.8777 35.1237 32.5424 34.3067 32.5424C33.4897 32.5424 32.825 31.8777 32.825 31.0607C32.825 30.5712 33.0646 30.1377 33.4316 29.8678C33.4499 30.3359 33.8341 30.71 34.3067 30.71C34.7793 30.71 35.1635 30.3359 35.1819 29.8678C35.5489 30.1377 35.7885 30.5712 35.7885 31.0607ZM21.4718 17.1496C21.4718 13.8528 24.1539 11.1706 27.4508 11.1706C30.7476 11.1706 33.4298 13.8528 33.4298 17.1496V19.5625L32.6541 18.7868C31.8563 17.989 30.5583 17.9889 29.7605 18.7868L21.4716 27.0756L21.4718 17.1496Z" fill="#2EBB77"/>
<path d="M55.7149 46.1303C55.4673 45.8079 55.0923 45.6228 54.686 45.6228C54.2798 45.6228 53.9047 45.8079 53.6571 46.1305C52.0572 48.2159 49.373 52.0403 49.373 54.2219C49.373 57.1515 51.7564 59.535 54.686 59.535C57.6155 59.535 59.9991 57.1515 59.9991 54.2219C59.9991 52.0403 57.3149 48.2159 55.7149 46.1303ZM54.686 57.7811C52.7235 57.7811 51.1268 56.1844 51.1268 54.2218C51.1268 53.1203 52.5113 50.5839 54.686 47.6763C56.861 50.5839 58.2453 53.1203 58.2453 54.2218C58.2453 56.1844 56.6486 57.7811 54.686 57.7811Z" fill="#2EBB77"/>
</g>
</g>
<defs>
<clipPath id="clip0_8360_21509">
<rect width="60" height="70" fill="white"/>
</clipPath>
</defs>
</svg>
