<svg width="54" height="55" viewBox="0 0 54 55" fill="none" xmlns="http://www.w3.org/2000/svg">
<path d="M50.4219 29.9365V19.2178C50.4219 19.0719 50.4036 18.9261 50.3672 18.7803C50.3307 18.6344 50.276 18.5068 50.2031 18.3975L41.0703 3.19434C40.6328 2.46517 40.0221 1.87272 39.2383 1.41699C38.4544 0.961262 37.625 0.733398 36.75 0.733398H13.6719C12.7969 0.733398 11.9766 0.961262 11.2109 1.41699C10.4453 1.87272 9.82552 2.46517 9.35156 3.19434L0.273438 18.3975C0.200521 18.5068 0.136719 18.6344 0.0820312 18.7803C0.0273438 18.9261 0 19.0719 0 19.2178V46.124C0 47.5094 0.501302 48.6943 1.50391 49.6787C2.50651 50.6631 3.70052 51.1553 5.08594 51.1553H29.2031C30.4792 52.2126 31.9284 53.042 33.5508 53.6436C35.1732 54.2451 36.8776 54.5459 38.6641 54.5459C40.7422 54.5459 42.7109 54.1449 44.5703 53.3428C46.3932 52.5407 47.9883 51.4561 49.3555 50.0889C50.7227 48.7217 51.8073 47.1266 52.6094 45.3037C53.4115 43.4443 53.8125 41.4756 53.8125 39.3975C53.8125 37.611 53.5117 35.9066 52.9102 34.2842C52.3086 32.6618 51.4792 31.2126 50.4219 29.9365ZM26.9062 4.12402H36.75C37.0417 4.12402 37.3151 4.19694 37.5703 4.34277C37.8255 4.48861 38.0443 4.68913 38.2266 4.94434L45.7734 17.5771H26.9062V4.12402ZM12.25 4.94434C12.3958 4.68913 12.5964 4.48861 12.8516 4.34277C13.1068 4.19694 13.3802 4.12402 13.6719 4.12402H23.5703V17.5771H4.64844L12.25 4.94434ZM3.39062 46.124V20.9131H47.0859V26.8193C45.8828 26.0173 44.5703 25.3975 43.1484 24.96C41.7266 24.5225 40.2318 24.3037 38.6641 24.3037C36.5859 24.3037 34.6354 24.6865 32.8125 25.4521C30.9531 26.2542 29.3398 27.3389 27.9727 28.7061C26.6055 30.0732 25.5208 31.6865 24.7188 33.5459C23.9531 35.3688 23.5703 37.3193 23.5703 39.3975C23.5703 40.9652 23.7891 42.46 24.2266 43.8818C24.6641 45.3037 25.2839 46.6162 26.0859 47.8193H5.08594C4.61198 47.8193 4.21094 47.6553 3.88281 47.3271C3.55469 46.999 3.39062 46.598 3.39062 46.124ZM38.6641 51.1553C37.0599 51.1553 35.5286 50.8454 34.0703 50.2256C32.6484 49.6058 31.4089 48.7673 30.3516 47.71C29.2943 46.6527 28.4557 45.4131 27.8359 43.9912C27.2161 42.5329 26.9062 41.0016 26.9062 39.3975C26.9062 37.7933 27.2161 36.262 27.8359 34.8037C28.4557 33.3818 29.2943 32.1423 30.3516 31.085C31.4089 30.0277 32.6484 29.1891 34.0703 28.5693C35.5286 27.9495 37.0599 27.6396 38.6641 27.6396C40.2682 27.6396 41.7995 27.9495 43.2578 28.5693C44.6797 29.1891 45.9193 30.0277 46.9766 31.085C48.0339 32.1423 48.8724 33.3818 49.4922 34.8037C50.112 36.262 50.4219 37.7933 50.4219 39.3975C50.4219 41.0016 50.112 42.5329 49.4922 43.9912C48.8724 45.4131 48.0339 46.6527 46.9766 47.71C45.9193 48.7673 44.6797 49.6058 43.2578 50.2256C41.7995 50.8454 40.2682 51.1553 38.6641 51.1553ZM36.9688 46.124C36.75 46.124 36.5404 46.0785 36.3398 45.9873C36.1393 45.8962 35.9661 45.7777 35.8203 45.6318L30.7344 40.6006C30.4062 40.2725 30.2422 39.8714 30.2422 39.3975C30.2422 38.9235 30.4062 38.5225 30.7344 38.1943C31.0625 37.8662 31.4635 37.7021 31.9375 37.7021C32.4115 37.7021 32.8125 37.8662 33.1406 38.1943L36.9688 42.0771L44.1875 34.8584C44.5156 34.5303 44.9167 34.3662 45.3906 34.3662C45.8646 34.3662 46.2656 34.5303 46.5938 34.8584C46.9219 35.1865 47.0859 35.5785 47.0859 36.0342C47.0859 36.4899 46.9219 36.8818 46.5938 37.21L38.1719 45.6318C38.026 45.7777 37.8438 45.8962 37.625 45.9873C37.4062 46.0785 37.1875 46.124 36.9688 46.124ZM16.8438 29.335H10.1172C9.64323 29.335 9.24219 29.1709 8.91406 28.8428C8.58594 28.5146 8.42188 28.1136 8.42188 27.6396C8.42188 27.1657 8.58594 26.7646 8.91406 26.4365C9.24219 26.1084 9.64323 25.9443 10.1172 25.9443H16.8438C17.2812 25.9443 17.6641 26.1084 17.9922 26.4365C18.3203 26.7646 18.4844 27.1657 18.4844 27.6396C18.4844 28.1136 18.3203 28.5146 17.9922 28.8428C17.6641 29.1709 17.2812 29.335 16.8438 29.335ZM50.4219 29.9365V19.2178C50.4219 19.0719 50.4036 18.9261 50.3672 18.7803C50.3307 18.6344 50.276 18.5068 50.2031 18.3975L41.0703 3.19434C40.6328 2.46517 40.0221 1.87272 39.2383 1.41699C38.4544 0.961262 37.625 0.733398 36.75 0.733398H13.6719C12.7969 0.733398 11.9766 0.961262 11.2109 1.41699C10.4453 1.87272 9.82552 2.46517 9.35156 3.19434L0.273438 18.3975C0.200521 18.5068 0.136719 18.6344 0.0820312 18.7803C0.0273438 18.9261 0 19.0719 0 19.2178V46.124C0 47.5094 0.501302 48.6943 1.50391 49.6787C2.50651 50.6631 3.70052 51.1553 5.08594 51.1553H29.2031C30.4792 52.2126 31.9284 53.042 33.5508 53.6436C35.1732 54.2451 36.8776 54.5459 38.6641 54.5459C40.7422 54.5459 42.7109 54.1449 44.5703 53.3428C46.3932 52.5407 47.9883 51.4561 49.3555 50.0889C50.7227 48.7217 51.8073 47.1266 52.6094 45.3037C53.4115 43.4443 53.8125 41.4756 53.8125 39.3975C53.8125 37.611 53.5117 35.9066 52.9102 34.2842C52.3086 32.6618 51.4792 31.2126 50.4219 29.9365ZM26.9062 4.12402H36.75C37.0417 4.12402 37.3151 4.19694 37.5703 4.34277C37.8255 4.48861 38.0443 4.68913 38.2266 4.94434L45.7734 17.5771H26.9062V4.12402ZM12.25 4.94434C12.3958 4.68913 12.5964 4.48861 12.8516 4.34277C13.1068 4.19694 13.3802 4.12402 13.6719 4.12402H23.5703V17.5771H4.64844L12.25 4.94434ZM3.39062 46.124V20.9131H47.0859V26.8193C45.8828 26.0173 44.5703 25.3975 43.1484 24.96C41.7266 24.5225 40.2318 24.3037 38.6641 24.3037C36.5859 24.3037 34.6354 24.6865 32.8125 25.4521C30.9531 26.2542 29.3398 27.3389 27.9727 28.7061C26.6055 30.0732 25.5208 31.6865 24.7188 33.5459C23.9531 35.3688 23.5703 37.3193 23.5703 39.3975C23.5703 40.9652 23.7891 42.46 24.2266 43.8818C24.6641 45.3037 25.2839 46.6162 26.0859 47.8193H5.08594C4.61198 47.8193 4.21094 47.6553 3.88281 47.3271C3.55469 46.999 3.39062 46.598 3.39062 46.124ZM38.6641 51.1553C37.0599 51.1553 35.5286 50.8454 34.0703 50.2256C32.6484 49.6058 31.4089 48.7673 30.3516 47.71C29.2943 46.6527 28.4557 45.4131 27.8359 43.9912C27.2161 42.5329 26.9062 41.0016 26.9062 39.3975C26.9062 37.7933 27.2161 36.262 27.8359 34.8037C28.4557 33.3818 29.2943 32.1423 30.3516 31.085C31.4089 30.0277 32.6484 29.1891 34.0703 28.5693C35.5286 27.9495 37.0599 27.6396 38.6641 27.6396C40.2682 27.6396 41.7995 27.9495 43.2578 28.5693C44.6797 29.1891 45.9193 30.0277 46.9766 31.085C48.0339 32.1423 48.8724 33.3818 49.4922 34.8037C50.112 36.262 50.4219 37.7933 50.4219 39.3975C50.4219 41.0016 50.112 42.5329 49.4922 43.9912C48.8724 45.4131 48.0339 46.6527 46.9766 47.71C45.9193 48.7673 44.6797 49.6058 43.2578 50.2256C41.7995 50.8454 40.2682 51.1553 38.6641 51.1553ZM36.9688 46.124C36.75 46.124 36.5404 46.0785 36.3398 45.9873C36.1393 45.8962 35.9661 45.7777 35.8203 45.6318L30.7344 40.6006C30.4062 40.2725 30.2422 39.8714 30.2422 39.3975C30.2422 38.9235 30.4062 38.5225 30.7344 38.1943C31.0625 37.8662 31.4635 37.7021 31.9375 37.7021C32.4115 37.7021 32.8125 37.8662 33.1406 38.1943L36.9688 42.0771L44.1875 34.8584C44.5156 34.5303 44.9167 34.3662 45.3906 34.3662C45.8646 34.3662 46.2656 34.5303 46.5938 34.8584C46.9219 35.1865 47.0859 35.5785 47.0859 36.0342C47.0859 36.4899 46.9219 36.8818 46.5938 37.21L38.1719 45.6318C38.026 45.7777 37.8438 45.8962 37.625 45.9873C37.4062 46.0785 37.1875 46.124 36.9688 46.124ZM16.8438 29.335H10.1172C9.64323 29.335 9.24219 29.1709 8.91406 28.8428C8.58594 28.5146 8.42188 28.1136 8.42188 27.6396C8.42188 27.1657 8.58594 26.7646 8.91406 26.4365C9.24219 26.1084 9.64323 25.9443 10.1172 25.9443H16.8438C17.2812 25.9443 17.6641 26.1084 17.9922 26.4365C18.3203 26.7646 18.4844 27.1657 18.4844 27.6396C18.4844 28.1136 18.3203 28.5146 17.9922 28.8428C17.6641 29.1709 17.2812 29.335 16.8438 29.335ZM49.4375 30.2646V19.2178C49.4375 19.1813 49.4284 19.1266 49.4102 19.0537C49.3919 18.9808 49.3646 18.9261 49.3281 18.8896L40.25 3.74121C39.8854 3.12142 39.3932 2.63835 38.7734 2.29199C38.1536 1.94564 37.4792 1.77246 36.75 1.77246H13.6719C12.9792 1.77246 12.3229 1.94564 11.7031 2.29199C11.0833 2.63835 10.5911 3.12142 10.2266 3.74121L1.14844 18.8896C1.11198 18.9261 1.08464 18.9808 1.06641 19.0537C1.04818 19.1266 1.03906 19.1813 1.03906 19.2178V46.124C1.03906 47.2178 1.43099 48.1657 2.21484 48.9678C2.9987 49.7699 3.95573 50.1709 5.08594 50.1709H29.5312L29.8047 50.3896C31.0078 51.374 32.3659 52.1396 33.8789 52.6865C35.3919 53.2334 36.987 53.5068 38.6641 53.5068C40.5964 53.5068 42.4193 53.1423 44.1328 52.4131C45.8464 51.6839 47.3503 50.6722 48.6445 49.3779C49.9388 48.0837 50.9505 46.5798 51.6797 44.8662C52.4089 43.1527 52.7734 41.3298 52.7734 39.3975C52.7734 37.7204 52.5 36.1253 51.9531 34.6123C51.4062 33.0993 50.6406 31.7412 49.6562 30.5381L49.4375 30.2646ZM41.0703 3.19434L50.2031 18.3975C50.276 18.5068 50.3307 18.6344 50.3672 18.7803C50.4036 18.9261 50.4219 19.0719 50.4219 19.2178V29.9365C51.4792 31.2126 52.3086 32.6618 52.9102 34.2842C53.5117 35.9066 53.8125 37.611 53.8125 39.3975C53.8125 41.4756 53.4115 43.4443 52.6094 45.3037C51.8073 47.1266 50.7227 48.7217 49.3555 50.0889C47.9883 51.4561 46.3932 52.5407 44.5703 53.3428C42.7109 54.1449 40.7422 54.5459 38.6641 54.5459C36.8776 54.5459 35.1732 54.2451 33.5508 53.6436C31.9284 53.042 30.4792 52.2126 29.2031 51.1553H5.08594C3.70052 51.1553 2.50651 50.6631 1.50391 49.6787C0.501302 48.6943 0 47.5094 0 46.124V19.2178C0 19.0719 0.0273438 18.9261 0.0820312 18.7803C0.136719 18.6344 0.200521 18.5068 0.273438 18.3975L9.35156 3.19434C9.82552 2.46517 10.4453 1.87272 11.2109 1.41699C11.9766 0.961262 12.7969 0.733398 13.6719 0.733398H36.75C37.625 0.733398 38.4544 0.961262 39.2383 1.41699C40.0221 1.87272 40.6328 2.46517 41.0703 3.19434ZM25.9219 3.13965V18.5615H47.5234L39.0469 4.39746C38.8281 3.99642 38.5091 3.68652 38.0898 3.46777C37.6706 3.24902 37.224 3.13965 36.75 3.13965H25.9219ZM12.25 4.94434C12.3958 4.68913 12.5964 4.48861 12.8516 4.34277C13.1068 4.19694 13.3802 4.12402 13.6719 4.12402H23.5703V17.5771H4.64844L12.25 4.94434ZM11.375 4.39746L2.89844 18.5615H24.5547V3.13965H13.6719C13.1979 3.13965 12.7604 3.24902 12.3594 3.46777C11.9583 3.68652 11.6302 3.99642 11.375 4.39746ZM2.40625 19.9287V46.124C2.40625 46.8532 2.66146 47.4821 3.17188 48.0107C3.68229 48.5394 4.32031 48.8037 5.08594 48.8037H28L26.9062 47.2178C26.1771 46.124 25.6029 44.9118 25.1836 43.5811C24.7643 42.2503 24.5547 40.8558 24.5547 39.3975C24.5547 37.4652 24.9193 35.6423 25.6484 33.9287C26.3776 32.2152 27.3893 30.7113 28.6836 29.417C29.9779 28.1227 31.4818 27.111 33.1953 26.3818C34.9089 25.6527 36.7318 25.2881 38.6641 25.2881C40.1224 25.2881 41.5169 25.4977 42.8477 25.917C44.1784 26.3363 45.3906 26.9105 46.4844 27.6396L48.0703 28.7334V19.9287H2.40625ZM36.9688 43.499L32.4297 38.9053C32.2839 38.7959 32.1198 38.7412 31.9375 38.7412C31.7552 38.7412 31.5911 38.7959 31.4453 38.9053C31.3359 39.0511 31.2812 39.2152 31.2812 39.3975C31.2812 39.5798 31.3359 39.7438 31.4453 39.8896L36.5312 44.9209C36.5677 44.9938 36.6315 45.0485 36.7227 45.085C36.8138 45.1214 36.8958 45.1396 36.9688 45.1396C37.0781 45.1396 37.1693 45.1214 37.2422 45.085C37.3151 45.0485 37.388 44.9938 37.4609 44.9209L45.8828 36.499C45.9922 36.3896 46.0469 36.2347 46.0469 36.0342C46.0469 35.8337 45.9922 35.6787 45.8828 35.5693C45.737 35.4235 45.5729 35.3506 45.3906 35.3506C45.2083 35.3506 45.0443 35.4235 44.8984 35.5693L36.9688 43.499ZM26.9062 17.5771V4.12402H36.75C37.0417 4.12402 37.3151 4.19694 37.5703 4.34277C37.8255 4.48861 38.0443 4.68913 38.2266 4.94434L45.7734 17.5771H26.9062ZM46.0469 26.2178C44.9531 25.598 43.7865 25.124 42.5469 24.7959C41.3073 24.4678 40.013 24.3037 38.6641 24.3037C36.5859 24.3037 34.6354 24.6865 32.8125 25.4521C30.9531 26.2542 29.3398 27.3389 27.9727 28.7061C26.6055 30.0732 25.5208 31.6865 24.7188 33.5459C23.9531 35.3688 23.5703 37.3193 23.5703 39.3975C23.5703 40.7464 23.7344 42.0407 24.0625 43.2803C24.3906 44.5199 24.8646 45.6865 25.4844 46.7803C25.5938 46.9626 25.694 47.1357 25.7852 47.2998C25.8763 47.4639 25.9766 47.637 26.0859 47.8193H5.08594C4.61198 47.8193 4.21094 47.6553 3.88281 47.3271C3.55469 46.999 3.39062 46.598 3.39062 46.124V20.9131H47.0859V26.8193C46.9036 26.71 46.7305 26.6097 46.5664 26.5186C46.4023 26.4274 46.2292 26.3271 46.0469 26.2178ZM38.6641 52.1396C36.9141 52.1396 35.2552 51.8115 33.6875 51.1553C32.1562 50.499 30.8073 49.5876 29.6406 48.4209C28.474 47.2542 27.5625 45.9053 26.9062 44.374C26.25 42.8063 25.9219 41.1475 25.9219 39.3975C25.9219 37.6475 26.25 35.9886 26.9062 34.4209C27.5625 32.8896 28.474 31.5407 29.6406 30.374C30.8073 29.2074 32.1562 28.2959 33.6875 27.6396C35.2552 26.9834 36.9141 26.6553 38.6641 26.6553C40.4141 26.6553 42.0729 26.9834 43.6406 27.6396C45.1719 28.2959 46.5208 29.2074 47.6875 30.374C48.8542 31.5407 49.7656 32.8896 50.4219 34.4209C51.0781 35.9886 51.4062 37.6475 51.4062 39.3975C51.4062 41.1475 51.0781 42.8063 50.4219 44.374C49.7656 45.9053 48.8542 47.2542 47.6875 48.4209C46.5208 49.5876 45.1719 50.499 43.6406 51.1553C42.0729 51.8115 40.4141 52.1396 38.6641 52.1396ZM36.9688 42.0771L44.1875 34.8584C44.5156 34.5303 44.9167 34.3662 45.3906 34.3662C45.8646 34.3662 46.2656 34.5303 46.5938 34.8584C46.9219 35.1865 47.0859 35.5785 47.0859 36.0342C47.0859 36.4899 46.9219 36.8818 46.5938 37.21L38.1719 45.6318C38.026 45.7777 37.8438 45.8962 37.625 45.9873C37.4062 46.0785 37.1875 46.124 36.9688 46.124C36.75 46.124 36.5404 46.0785 36.3398 45.9873C36.1393 45.8962 35.9661 45.7777 35.8203 45.6318L30.7344 40.6006C30.4062 40.2725 30.2422 39.8714 30.2422 39.3975C30.2422 38.9235 30.4062 38.5225 30.7344 38.1943C31.0625 37.8662 31.4635 37.7021 31.9375 37.7021C32.4115 37.7021 32.8125 37.8662 33.1406 38.1943L36.9688 42.0771ZM10.1172 28.2959C9.9349 28.2959 9.77083 28.2321 9.625 28.1045C9.47917 27.9769 9.40625 27.8219 9.40625 27.6396C9.40625 27.4574 9.47917 27.3024 9.625 27.1748C9.77083 27.0472 9.9349 26.9834 10.1172 26.9834H16.8438C17.026 26.9834 17.181 27.0472 17.3086 27.1748C17.4362 27.3024 17.5 27.4574 17.5 27.6396C17.5 27.8219 17.4362 27.9769 17.3086 28.1045C17.181 28.2321 17.026 28.2959 16.8438 28.2959H10.1172ZM26.9062 39.3975C26.9062 41.0016 27.2161 42.5329 27.8359 43.9912C28.4557 45.4131 29.2943 46.6527 30.3516 47.71C31.4089 48.7673 32.6484 49.6058 34.0703 50.2256C35.5286 50.8454 37.0599 51.1553 38.6641 51.1553C40.2682 51.1553 41.7995 50.8454 43.2578 50.2256C44.6797 49.6058 45.9193 48.7673 46.9766 47.71C48.0339 46.6527 48.8724 45.4131 49.4922 43.9912C50.112 42.5329 50.4219 41.0016 50.4219 39.3975C50.4219 37.7933 50.112 36.262 49.4922 34.8037C48.8724 33.3818 48.0339 32.1423 46.9766 31.085C45.9193 30.0277 44.6797 29.1891 43.2578 28.5693C41.7995 27.9495 40.2682 27.6396 38.6641 27.6396C37.0599 27.6396 35.5286 27.9495 34.0703 28.5693C32.6484 29.1891 31.4089 30.0277 30.3516 31.085C29.2943 32.1423 28.4557 33.3818 27.8359 34.8037C27.2161 36.262 26.9062 37.7933 26.9062 39.3975ZM10.1172 29.335H16.8438C17.2812 29.335 17.6641 29.1709 17.9922 28.8428C18.3203 28.5146 18.4844 28.1136 18.4844 27.6396C18.4844 27.1657 18.3203 26.7646 17.9922 26.4365C17.6641 26.1084 17.2812 25.9443 16.8438 25.9443H10.1172C9.64323 25.9443 9.24219 26.1084 8.91406 26.4365C8.58594 26.7646 8.42188 27.1657 8.42188 27.6396C8.42188 28.1136 8.58594 28.5146 8.91406 28.8428C9.24219 29.1709 9.64323 29.335 10.1172 29.335Z" fill="#2EBB77"/>
</svg>
